<svg width="24" height="24" viewBox="0 0 24 24" fill="none" xmlns="http://www.w3.org/2000/svg">
<path d="M21.4502 13.64V14.64C21.4502 14.7709 21.3989 14.8966 21.3073 14.9901C21.2157 15.0836 21.0911 15.1374 20.9602 15.14H19.5002C18.9702 15.14 18.4902 14.75 18.4502 14.23C18.4202 13.92 18.5402 13.63 18.7402 13.43C18.8307 13.3363 18.9396 13.2621 19.06 13.2122C19.1805 13.1623 19.3099 13.1378 19.4402 13.14H20.9502C21.2402 13.15 21.4502 13.37 21.4502 13.64Z" fill="black"/>
<path d="M17.99 12.69C17.49 13.18 17.25 13.91 17.45 14.67C17.71 15.6 18.62 16.19 19.58 16.19H20.45C21 16.19 21.45 16.64 21.45 17.19V17.38C21.45 19.45 19.76 21.14 17.69 21.14H6.21001C4.14001 21.14 2.45001 19.45 2.45001 17.38V10.65C2.45001 9.41996 3.04001 8.32996 3.95001 7.64996C4.58001 7.16996 5.36001 6.88996 6.21001 6.88996H17.69C19.76 6.88996 21.45 8.57996 21.45 10.65V11.09C21.45 11.64 21 12.09 20.45 12.09H19.43C18.87 12.09 18.36 12.31 17.99 12.69ZM16.2 4.81996C16.47 5.08996 16.24 5.50996 15.86 5.50996L8.18001 5.49996C7.74001 5.49996 7.51001 4.95996 7.83001 4.64996L9.45001 3.01996C10.11 2.36654 11.0013 2 11.93 2C12.8588 2 13.75 2.36654 14.41 3.01996L16.16 4.78996C16.17 4.79996 16.19 4.80996 16.2 4.81996Z" fill="black"/>
</svg>
