<svg width="538" height="200" viewBox="0 0 538 200" fill="none" xmlns="http://www.w3.org/2000/svg">
<g opacity="0.5">
<path d="M2.69742 195.125C2.69742 193.888 2.20551 192.885 1.59871 192.885C0.991909 192.885 0.5 193.888 0.5 195.125V197.748C0.5 198.985 0.991909 199.988 1.59871 199.988C2.20551 199.988 2.69742 198.985 2.69742 197.748V195.125Z" fill="#DA6365"/>
<path d="M6.26285 155.43C6.26285 154.192 5.77094 153.189 5.16414 153.189C4.55734 153.189 4.06543 154.192 4.06543 155.43V197.748C4.06543 198.985 4.55734 199.988 5.16414 199.988C5.77094 199.988 6.26285 198.985 6.26285 197.748V155.43Z" fill="#DA6365"/>
<path d="M9.82804 121.308C9.82804 120.07 9.33613 119.067 8.72933 119.067C8.12252 119.067 7.63062 120.07 7.63062 121.308V197.748C7.63062 198.985 8.12252 199.988 8.72933 199.988C9.33613 199.988 9.82804 198.985 9.82804 197.748V121.308Z" fill="#DA6365"/>
<path d="M13.3935 119.769C13.3935 118.532 12.9016 117.529 12.2948 117.529C11.688 117.529 11.196 118.532 11.196 119.769V197.748C11.196 198.985 11.688 199.988 12.2948 199.988C12.9016 199.988 13.3935 198.985 13.3935 197.748V119.769Z" fill="#DA6365"/>
<path d="M16.9589 149.56C16.9589 148.323 16.467 147.32 15.8602 147.32C15.2534 147.32 14.7615 148.323 14.7615 149.56V197.748C14.7615 198.985 15.2534 199.988 15.8602 199.988C16.467 199.988 16.9589 198.985 16.9589 197.748V149.56Z" fill="#DA6365"/>
<path d="M20.5241 146.548C20.5241 145.311 20.0322 144.308 19.4254 144.308C18.8186 144.308 18.3267 145.311 18.3267 146.548V197.748C18.3267 198.985 18.8186 199.988 19.4254 199.988C20.0322 199.988 20.5241 198.985 20.5241 197.748V146.548Z" fill="#DA6365"/>
<path d="M24.0895 157.59C24.0895 156.353 23.5976 155.35 22.9908 155.35C22.384 155.35 21.8921 156.353 21.8921 157.59V197.748C21.8921 198.985 22.384 199.988 22.9908 199.988C23.5976 199.988 24.0895 198.985 24.0895 197.748V157.59Z" fill="#DA6365"/>
<path d="M27.6549 139.966C27.6549 138.729 27.163 137.726 26.5562 137.726C25.9494 137.726 25.4575 138.729 25.4575 139.966V197.748C25.4575 198.985 25.9494 199.988 26.5562 199.988C27.163 199.988 27.6549 198.985 27.6549 197.748V139.966Z" fill="#DA6365"/>
<path d="M31.2201 152.584C31.2201 151.347 30.7282 150.344 30.1214 150.344C29.5146 150.344 29.0227 151.347 29.0227 152.584V197.748C29.0227 198.985 29.5146 199.988 30.1214 199.988C30.7282 199.988 31.2201 198.985 31.2201 197.748V152.584Z" fill="#DA6365"/>
<path d="M34.7856 154.63C34.7856 153.393 34.2936 152.39 33.6868 152.39C33.08 152.39 32.5881 153.393 32.5881 154.63V197.748C32.5881 198.985 33.08 199.988 33.6868 199.988C34.2936 199.988 34.7856 198.985 34.7856 197.748V154.63Z" fill="#DA6365"/>
<path d="M38.351 164.896C38.351 163.659 37.8591 162.656 37.2523 162.656C36.6455 162.656 36.1536 163.659 36.1536 164.896V197.748C36.1536 198.985 36.6455 199.988 37.2523 199.988C37.8591 199.988 38.351 198.985 38.351 197.748V164.896Z" fill="#DA6365"/>
<path d="M41.9162 157.548C41.9162 156.311 41.4243 155.308 40.8175 155.308C40.2107 155.308 39.7188 156.311 39.7188 157.548V197.748C39.7188 198.985 40.2107 199.988 40.8175 199.988C41.4243 199.988 41.9162 198.985 41.9162 197.748V157.548Z" fill="#DA6365"/>
<path d="M45.4816 138.064C45.4816 136.827 44.9897 135.824 44.3829 135.824C43.7761 135.824 43.2842 136.827 43.2842 138.064V197.748C43.2842 198.985 43.7761 199.988 44.3829 199.988C44.9897 199.988 45.4816 198.985 45.4816 197.748V138.064Z" fill="#DA6365"/>
<path d="M49.047 117.384C49.047 116.147 48.5551 115.144 47.9483 115.144C47.3415 115.144 46.8496 116.147 46.8496 117.384V197.748C46.8496 198.985 47.3415 199.988 47.9483 199.988C48.5551 199.988 49.047 198.985 49.047 197.748V117.384Z" fill="#DA6365"/>
<path d="M52.6122 119.793C52.6122 118.556 52.1203 117.553 51.5135 117.553C50.9067 117.553 50.4148 118.556 50.4148 119.793V197.748C50.4148 198.985 50.9067 199.988 51.5135 199.988C52.1203 199.988 52.6122 198.985 52.6122 197.748V119.793Z" fill="#DA6365"/>
<path d="M56.1776 126.863C56.1776 125.625 55.6857 124.622 55.0789 124.622C54.4721 124.622 53.9802 125.625 53.9802 126.863V197.748C53.9802 198.985 54.4721 199.988 55.0789 199.988C55.6857 199.988 56.1776 198.985 56.1776 197.748V126.863Z" fill="#DA6365"/>
<path d="M59.7428 143.66C59.7428 142.423 59.2509 141.42 58.6441 141.42C58.0373 141.42 57.5454 142.423 57.5454 143.66V197.748C57.5454 198.985 58.0373 199.988 58.6441 199.988C59.2509 199.988 59.7428 198.985 59.7428 197.748V143.66Z" fill="#DA6365"/>
<path d="M63.3083 129.058C63.3083 127.821 62.8164 126.818 62.2095 126.818C61.6027 126.818 61.1108 127.821 61.1108 129.058V197.748C61.1108 198.985 61.6027 199.988 62.2095 199.988C62.8164 199.988 63.3083 198.985 63.3083 197.748V129.058Z" fill="#DA6365"/>
<path d="M66.8737 125.144C66.8737 123.907 66.3818 122.904 65.775 122.904C65.1682 122.904 64.6763 123.907 64.6763 125.144V197.748C64.6763 198.985 65.1682 199.988 65.775 199.988C66.3818 199.988 66.8737 198.985 66.8737 197.748V125.144Z" fill="#DA6365"/>
<path d="M70.4389 150.528C70.4389 149.291 69.947 148.288 69.3402 148.288C68.7334 148.288 68.2415 149.291 68.2415 150.528V197.748C68.2415 198.985 68.7334 199.988 69.3402 199.988C69.947 199.988 70.4389 198.985 70.4389 197.748V150.528Z" fill="#DA6365"/>
<path d="M74.0043 116.696C74.0043 115.459 73.5124 114.456 72.9056 114.456C72.2988 114.456 71.8069 115.459 71.8069 116.696V197.748C71.8069 198.985 72.2988 199.988 72.9056 199.988C73.5124 199.988 74.0043 198.985 74.0043 197.748V116.696Z" fill="#DA6365"/>
<path d="M77.5697 136.109C77.5697 134.872 77.0778 133.869 76.471 133.869C75.8642 133.869 75.3723 134.872 75.3723 136.109V197.748C75.3723 198.985 75.8642 199.988 76.471 199.988C77.0778 199.988 77.5697 198.985 77.5697 197.748V136.109Z" fill="#DA6365"/>
<path d="M81.1349 145.911C81.1349 144.674 80.643 143.671 80.0362 143.671C79.4294 143.671 78.9375 144.674 78.9375 145.911V197.748C78.9375 198.985 79.4294 199.988 80.0362 199.988C80.643 199.988 81.1349 198.985 81.1349 197.748V145.911Z" fill="#DA6365"/>
<path d="M84.7003 127.74C84.7003 126.503 84.2084 125.5 83.6016 125.5C82.9948 125.5 82.5029 126.503 82.5029 127.74V197.748C82.5029 198.985 82.9948 199.988 83.6016 199.988C84.2084 199.988 84.7003 198.985 84.7003 197.748V127.74Z" fill="#DA6365"/>
<path d="M88.2658 113.977C88.2658 112.74 87.7739 111.737 87.1671 111.737C86.5603 111.737 86.0684 112.74 86.0684 113.977V197.748C86.0684 198.985 86.5603 199.988 87.1671 199.988C87.7739 199.988 88.2658 198.985 88.2658 197.748V113.977Z" fill="#DA6365"/>
<path d="M91.831 118.922C91.831 117.684 91.3391 116.681 90.7323 116.681C90.1255 116.681 89.6335 117.684 89.6335 118.922V197.748C89.6335 198.985 90.1255 199.988 90.7323 199.988C91.3391 199.988 91.831 198.985 91.831 197.748V118.922Z" fill="#DA6365"/>
<path d="M95.3966 142.729C95.3966 141.492 94.9047 140.489 94.2979 140.489C93.6911 140.489 93.1992 141.492 93.1992 142.729V197.748C93.1992 198.985 93.6911 199.988 94.2979 199.988C94.9047 199.988 95.3966 198.985 95.3966 197.748V142.729Z" fill="#DA6365"/>
<path d="M98.9621 119.352C98.9621 118.115 98.4702 117.112 97.8634 117.112C97.2566 117.112 96.7646 118.115 96.7646 119.352V197.748C96.7646 198.985 97.2566 199.988 97.8634 199.988C98.4702 199.988 98.9621 198.985 98.9621 197.748V119.352Z" fill="#DA6365"/>
<path d="M102.527 107.61C102.527 106.373 102.035 105.37 101.428 105.37C100.821 105.37 100.33 106.373 100.33 107.61V197.748C100.33 198.985 100.821 199.988 101.428 199.988C102.035 199.988 102.527 198.985 102.527 197.748V107.61Z" fill="#DA6365"/>
<path d="M106.093 95.4357C106.093 94.1985 105.601 93.1955 104.994 93.1955C104.387 93.1955 103.895 94.1985 103.895 95.4357V197.748C103.895 198.985 104.387 199.988 104.994 199.988C105.601 199.988 106.093 198.985 106.093 197.748V95.4357Z" fill="#DA6365"/>
<path d="M109.658 44.2688C109.658 43.0315 109.166 42.0285 108.559 42.0285C107.953 42.0285 107.461 43.0315 107.461 44.2688V197.748C107.461 198.985 107.953 199.988 108.559 199.988C109.166 199.988 109.658 198.985 109.658 197.748V44.2688Z" fill="#DA6365"/>
<path d="M113.223 47.4206C113.223 46.1833 112.731 45.1803 112.125 45.1803C111.518 45.1803 111.026 46.1833 111.026 47.4206V197.748C111.026 198.985 111.518 199.988 112.125 199.988C112.731 199.988 113.223 198.985 113.223 197.748V47.4206Z" fill="#DA6365"/>
<path d="M116.789 74.8167C116.789 73.5795 116.297 72.5764 115.69 72.5764C115.083 72.5764 114.591 73.5795 114.591 74.8167V197.748C114.591 198.985 115.083 199.988 115.69 199.988C116.297 199.988 116.789 198.985 116.789 197.748V74.8167Z" fill="#DA6365"/>
<path d="M120.354 118.754C120.354 117.516 119.862 116.513 119.255 116.513C118.649 116.513 118.157 117.516 118.157 118.754V197.748C118.157 198.985 118.649 199.988 119.255 199.988C119.862 199.988 120.354 198.985 120.354 197.748V118.754Z" fill="#DA6365"/>
<path d="M123.919 142.602C123.919 141.365 123.427 140.362 122.821 140.362C122.214 140.362 121.722 141.365 121.722 142.602V197.748C121.722 198.985 122.214 199.988 122.821 199.988C123.427 199.988 123.919 198.985 123.919 197.748V142.602Z" fill="#DA6365"/>
<path d="M127.485 195.357C127.485 194.12 126.993 193.117 126.386 193.117C125.779 193.117 125.287 194.12 125.287 195.357V197.748C125.287 198.985 125.779 199.988 126.386 199.988C126.993 199.988 127.485 198.985 127.485 197.748V195.357Z" fill="#DA6365"/>
<path d="M131.05 109.832C131.05 108.595 130.558 107.592 129.951 107.592C129.345 107.592 128.853 108.595 128.853 109.832V197.748C128.853 198.985 129.345 199.988 129.951 199.988C130.558 199.988 131.05 198.985 131.05 197.748V109.832Z" fill="#DA6365"/>
<path d="M134.615 121.306C134.615 120.069 134.123 119.066 133.517 119.066C132.91 119.066 132.418 120.069 132.418 121.306V197.748C132.418 198.985 132.91 199.988 133.517 199.988C134.123 199.988 134.615 198.985 134.615 197.748V121.306Z" fill="#DA6365"/>
<path d="M138.181 85.4808C138.181 84.2435 137.689 83.2405 137.082 83.2405C136.475 83.2405 135.983 84.2435 135.983 85.4808V197.748C135.983 198.985 136.475 199.988 137.082 199.988C137.689 199.988 138.181 198.985 138.181 197.748V85.4808Z" fill="#DA6365"/>
<path d="M141.746 75.9645C141.746 74.7272 141.254 73.7242 140.648 73.7242C140.041 73.7242 139.549 74.7272 139.549 75.9645V197.748C139.549 198.985 140.041 199.988 140.648 199.988C141.254 199.988 141.746 198.985 141.746 197.748V75.9645Z" fill="#DA6365"/>
<path d="M145.311 119.762C145.311 118.525 144.82 117.522 144.213 117.522C143.606 117.522 143.114 118.525 143.114 119.762V197.748C143.114 198.985 143.606 199.988 144.213 199.988C144.82 199.988 145.311 198.985 145.311 197.748V119.762Z" fill="#DA6365"/>
<path d="M148.877 106.966C148.877 105.729 148.385 104.726 147.778 104.726C147.171 104.726 146.679 105.729 146.679 106.966V197.748C146.679 198.985 147.171 199.988 147.778 199.988C148.385 199.988 148.877 198.985 148.877 197.748V106.966Z" fill="#DA6365"/>
<path d="M152.442 122.575C152.442 121.338 151.95 120.335 151.344 120.335C150.737 120.335 150.245 121.338 150.245 122.575V197.748C150.245 198.985 150.737 199.988 151.344 199.988C151.95 199.988 152.442 198.985 152.442 197.748V122.575Z" fill="#DA6365"/>
<path d="M156.007 77.6448C156.007 76.4076 155.516 75.4046 154.909 75.4046C154.302 75.4046 153.81 76.4076 153.81 77.6448V197.748C153.81 198.985 154.302 199.988 154.909 199.988C155.516 199.988 156.007 198.985 156.007 197.748V77.6448Z" fill="#DA6365"/>
<path d="M159.573 94.259C159.573 93.0218 159.081 92.0188 158.474 92.0188C157.867 92.0188 157.375 93.0218 157.375 94.259V197.748C157.375 198.985 157.867 199.988 158.474 199.988C159.081 199.988 159.573 198.985 159.573 197.748V94.259Z" fill="#DA6365"/>
<path d="M163.138 126.273C163.138 125.036 162.646 124.033 162.039 124.033C161.433 124.033 160.941 125.036 160.941 126.273V197.748C160.941 198.985 161.433 199.988 162.039 199.988C162.646 199.988 163.138 198.985 163.138 197.748V126.273Z" fill="#DA6365"/>
<path d="M166.704 128.541C166.704 127.304 166.212 126.301 165.605 126.301C164.998 126.301 164.506 127.304 164.506 128.541V197.748C164.506 198.985 164.998 199.988 165.605 199.988C166.212 199.988 166.704 198.985 166.704 197.748V128.541Z" fill="#DA6365"/>
<path d="M170.269 126.634C170.269 125.397 169.777 124.394 169.17 124.394C168.563 124.394 168.072 125.397 168.072 126.634V197.748C168.072 198.985 168.563 199.988 169.17 199.988C169.777 199.988 170.269 198.985 170.269 197.748V126.634Z" fill="#DA6365"/>
<path d="M173.834 116.522C173.834 115.285 173.342 114.282 172.735 114.282C172.129 114.282 171.637 115.285 171.637 116.522V197.748C171.637 198.985 172.129 199.988 172.735 199.988C173.342 199.988 173.834 198.985 173.834 197.748V116.522Z" fill="#DA6365"/>
<path d="M177.4 110.759C177.4 109.521 176.908 108.518 176.301 108.518C175.694 108.518 175.202 109.521 175.202 110.759V197.748C175.202 198.985 175.694 199.988 176.301 199.988C176.908 199.988 177.4 198.985 177.4 197.748V110.759Z" fill="#DA6365"/>
<path d="M180.965 120.997C180.965 119.76 180.473 118.757 179.866 118.757C179.259 118.757 178.768 119.76 178.768 120.997V197.748C178.768 198.985 179.259 199.988 179.866 199.988C180.473 199.988 180.965 198.985 180.965 197.748V120.997Z" fill="#DA6365"/>
<path d="M184.53 138.726C184.53 137.489 184.038 136.486 183.431 136.486C182.825 136.486 182.333 137.489 182.333 138.726V197.748C182.333 198.985 182.825 199.988 183.431 199.988C184.038 199.988 184.53 198.985 184.53 197.748V138.726Z" fill="#DA6365"/>
<path d="M188.096 132.351C188.096 131.113 187.604 130.11 186.997 130.11C186.39 130.11 185.898 131.113 185.898 132.351V197.748C185.898 198.985 186.39 199.988 186.997 199.988C187.604 199.988 188.096 198.985 188.096 197.748V132.351Z" fill="#DA6365"/>
<path d="M191.661 109.135C191.661 107.898 191.169 106.895 190.562 106.895C189.956 106.895 189.464 107.898 189.464 109.135V197.748C189.464 198.985 189.956 199.988 190.562 199.988C191.169 199.988 191.661 198.985 191.661 197.748V109.135Z" fill="#DA6365"/>
<path d="M195.226 2.28213C195.226 1.04485 194.734 0.0418472 194.128 0.0418472C193.521 0.0418472 193.029 1.04485 193.029 2.28213V197.748C193.029 198.985 193.521 199.988 194.128 199.988C194.734 199.988 195.226 198.985 195.226 197.748V2.28213Z" fill="#DA6365"/>
<path d="M198.792 113.697C198.792 112.46 198.3 111.457 197.693 111.457C197.086 111.457 196.594 112.46 196.594 113.697V197.748C196.594 198.985 197.086 199.988 197.693 199.988C198.3 199.988 198.792 198.985 198.792 197.748V113.697Z" fill="#DA6365"/>
<path d="M202.357 112.792C202.357 111.555 201.865 110.552 201.258 110.552C200.652 110.552 200.16 111.555 200.16 112.792V197.748C200.16 198.985 200.652 199.988 201.258 199.988C201.865 199.988 202.357 198.985 202.357 197.748V112.792Z" fill="#DA6365"/>
<path d="M205.922 132.558C205.922 131.32 205.43 130.317 204.824 130.317C204.217 130.317 203.725 131.32 203.725 132.558V197.748C203.725 198.985 204.217 199.988 204.824 199.988C205.43 199.988 205.922 198.985 205.922 197.748V132.558Z" fill="#DA6365"/>
<path d="M209.488 125.289C209.488 124.051 208.996 123.048 208.389 123.048C207.782 123.048 207.29 124.051 207.29 125.289V197.748C207.29 198.985 207.782 199.988 208.389 199.988C208.996 199.988 209.488 198.985 209.488 197.748V125.289Z" fill="#DA6365"/>
<path d="M213.053 46.4828C213.053 45.2456 212.561 44.2426 211.954 44.2426C211.348 44.2426 210.856 45.2456 210.856 46.4828V197.748C210.856 198.985 211.348 199.988 211.954 199.988C212.561 199.988 213.053 198.985 213.053 197.748V46.4828Z" fill="#DA6365"/>
<path d="M216.618 119.893C216.618 118.656 216.126 117.653 215.52 117.653C214.913 117.653 214.421 118.656 214.421 119.893V197.748C214.421 198.985 214.913 199.988 215.52 199.988C216.126 199.988 216.618 198.985 216.618 197.748V119.893Z" fill="#DA6365"/>
<path d="M220.184 143.617C220.184 142.38 219.692 141.377 219.085 141.377C218.478 141.377 217.986 142.38 217.986 143.617V197.748C217.986 198.985 218.478 199.988 219.085 199.988C219.692 199.988 220.184 198.985 220.184 197.748V143.617Z" fill="#DA6365"/>
<path d="M223.749 142.797C223.749 141.56 223.257 140.557 222.65 140.557C222.044 140.557 221.552 141.56 221.552 142.797V197.748C221.552 198.985 222.044 199.988 222.65 199.988C223.257 199.988 223.749 198.985 223.749 197.748V142.797Z" fill="#DA6365"/>
<path d="M227.314 140.305C227.314 139.068 226.822 138.065 226.216 138.065C225.609 138.065 225.117 139.068 225.117 140.305V197.748C225.117 198.985 225.609 199.988 226.216 199.988C226.822 199.988 227.314 198.985 227.314 197.748V140.305Z" fill="#DA6365"/>
<path d="M230.88 112.47C230.88 111.233 230.388 110.23 229.781 110.23C229.174 110.23 228.682 111.233 228.682 112.47V197.748C228.682 198.985 229.174 199.988 229.781 199.988C230.388 199.988 230.88 198.985 230.88 197.748V112.47Z" fill="#DA6365"/>
<path d="M234.445 119.59C234.445 118.353 233.953 117.35 233.347 117.35C232.74 117.35 232.248 118.353 232.248 119.59V197.748C232.248 198.985 232.74 199.988 233.347 199.988C233.953 199.988 234.445 198.985 234.445 197.748V119.59Z" fill="#DA6365"/>
<path d="M238.01 139.685C238.01 138.448 237.518 137.445 236.912 137.445C236.305 137.445 235.813 138.448 235.813 139.685V197.748C235.813 198.985 236.305 199.988 236.912 199.988C237.518 199.988 238.01 198.985 238.01 197.748V139.685Z" fill="#DA6365"/>
<path d="M241.576 133.67C241.576 132.433 241.084 131.43 240.477 131.43C239.87 131.43 239.378 132.433 239.378 133.67V197.748C239.378 198.985 239.87 199.988 240.477 199.988C241.084 199.988 241.576 198.985 241.576 197.748V133.67Z" fill="#DA6365"/>
<path d="M245.141 130.781C245.141 129.543 244.649 128.54 244.043 128.54C243.436 128.54 242.944 129.543 242.944 130.781V197.748C242.944 198.985 243.436 199.988 244.043 199.988C244.649 199.988 245.141 198.985 245.141 197.748V130.781Z" fill="#DA6365"/>
<path d="M248.706 133.04C248.706 131.802 248.215 130.799 247.608 130.799C247.001 130.799 246.509 131.802 246.509 133.04V197.748C246.509 198.985 247.001 199.988 247.608 199.988C248.215 199.988 248.706 198.985 248.706 197.748V133.04Z" fill="#DA6365"/>
<path d="M252.272 137.724C252.272 136.487 251.78 135.484 251.173 135.484C250.566 135.484 250.074 136.487 250.074 137.724V197.748C250.074 198.985 250.566 199.988 251.173 199.988C251.78 199.988 252.272 198.985 252.272 197.748V137.724Z" fill="#DA6365"/>
<path d="M255.838 147.564C255.838 146.327 255.346 145.324 254.739 145.324C254.132 145.324 253.64 146.327 253.64 147.564V197.748C253.64 198.985 254.132 199.988 254.739 199.988C255.346 199.988 255.838 198.985 255.838 197.748V147.564Z" fill="#52B899"/>
<path d="M259.403 140.883C259.403 139.646 258.911 138.643 258.304 138.643C257.697 138.643 257.205 139.646 257.205 140.883V197.748C257.205 198.985 257.697 199.988 258.304 199.988C258.911 199.988 259.403 198.985 259.403 197.748V140.883Z" fill="#52B899"/>
<path d="M262.968 153.586C262.968 152.348 262.476 151.345 261.869 151.345C261.263 151.345 260.771 152.348 260.771 153.586V197.748C260.771 198.985 261.263 199.988 261.869 199.988C262.476 199.988 262.968 198.985 262.968 197.748V153.586Z" fill="#52B899"/>
<path d="M266.533 155.391C266.533 154.154 266.041 153.151 265.435 153.151C264.828 153.151 264.336 154.154 264.336 155.391V197.748C264.336 198.985 264.828 199.988 265.435 199.988C266.041 199.988 266.533 198.985 266.533 197.748V155.391Z" fill="#52B899"/>
<path d="M270.099 168.919C270.099 167.682 269.607 166.679 269 166.679C268.393 166.679 267.901 167.682 267.901 168.919V197.748C267.901 198.985 268.393 199.988 269 199.988C269.607 199.988 270.099 198.985 270.099 197.748V168.919Z" fill="#52B899"/>
<path d="M273.664 171.341C273.664 170.103 273.172 169.1 272.566 169.1C271.959 169.1 271.467 170.103 271.467 171.341V197.748C271.467 198.985 271.959 199.988 272.566 199.988C273.172 199.988 273.664 198.985 273.664 197.748V171.341Z" fill="#52B899"/>
<path d="M277.229 170.61C277.229 169.372 276.737 168.369 276.131 168.369C275.524 168.369 275.032 169.372 275.032 170.61V197.748C275.032 198.985 275.524 199.988 276.131 199.988C276.737 199.988 277.229 198.985 277.229 197.748V170.61Z" fill="#52B899"/>
<path d="M280.795 131.861C280.795 130.624 280.303 129.621 279.696 129.621C279.089 129.621 278.597 130.624 278.597 131.861V197.748C278.597 198.985 279.089 199.988 279.696 199.988C280.303 199.988 280.795 198.985 280.795 197.748V131.861Z" fill="#52B899"/>
<path d="M284.36 140.829C284.36 139.591 283.868 138.588 283.262 138.588C282.655 138.588 282.163 139.591 282.163 140.829V197.748C282.163 198.985 282.655 199.988 283.262 199.988C283.868 199.988 284.36 198.985 284.36 197.748V140.829Z" fill="#52B899"/>
<path d="M287.925 42.2905C287.925 41.0533 287.434 40.0502 286.827 40.0502C286.22 40.0502 285.728 41.0533 285.728 42.2905V197.748C285.728 198.985 286.22 199.988 286.827 199.988C287.434 199.988 287.925 198.985 287.925 197.748V42.2905Z" fill="#52B899"/>
<path d="M291.491 151.929C291.491 150.692 290.999 149.689 290.392 149.689C289.785 149.689 289.293 150.692 289.293 151.929V197.748C289.293 198.985 289.785 199.988 290.392 199.988C290.999 199.988 291.491 198.985 291.491 197.748V151.929Z" fill="#52B899"/>
<path d="M295.056 153.391C295.056 152.154 294.564 151.151 293.958 151.151C293.351 151.151 292.859 152.154 292.859 153.391V197.748C292.859 198.985 293.351 199.988 293.958 199.988C294.564 199.988 295.056 198.985 295.056 197.748V153.391Z" fill="#52B899"/>
<path d="M298.622 168.604C298.622 167.366 298.13 166.363 297.523 166.363C296.916 166.363 296.424 167.366 296.424 168.604V197.748C296.424 198.985 296.916 199.988 297.523 199.988C298.13 199.988 298.622 198.985 298.622 197.748V168.604Z" fill="#52B899"/>
<path d="M302.187 175.918C302.187 174.681 301.695 173.678 301.088 173.678C300.481 173.678 299.99 174.681 299.99 175.918V197.748C299.99 198.985 300.481 199.988 301.088 199.988C301.695 199.988 302.187 198.985 302.187 197.748V175.918Z" fill="#52B899"/>
<path d="M305.752 162.074C305.752 160.837 305.26 159.834 304.654 159.834C304.047 159.834 303.555 160.837 303.555 162.074V197.748C303.555 198.985 304.047 199.988 304.654 199.988C305.26 199.988 305.752 198.985 305.752 197.748V162.074Z" fill="#52B899"/>
<path d="M309.318 181.716C309.318 180.479 308.826 179.476 308.219 179.476C307.612 179.476 307.12 180.479 307.12 181.716V197.748C307.12 198.985 307.612 199.988 308.219 199.988C308.826 199.988 309.318 198.985 309.318 197.748V181.716Z" fill="#52B899"/>
<path d="M312.883 185.147C312.883 183.91 312.391 182.907 311.784 182.907C311.177 182.907 310.686 183.91 310.686 185.147V197.748C310.686 198.985 311.177 199.988 311.784 199.988C312.391 199.988 312.883 198.985 312.883 197.748V185.147Z" fill="#52B899"/>
<path d="M316.448 181.462C316.448 180.225 315.956 179.222 315.35 179.222C314.743 179.222 314.251 180.225 314.251 181.462V197.748C314.251 198.985 314.743 199.988 315.35 199.988C315.956 199.988 316.448 198.985 316.448 197.748V181.462Z" fill="#52B899"/>
<path d="M320.014 152.841C320.014 151.604 319.522 150.601 318.915 150.601C318.308 150.601 317.816 151.604 317.816 152.841V197.748C317.816 198.985 318.308 199.988 318.915 199.988C319.522 199.988 320.014 198.985 320.014 197.748V152.841Z" fill="#52B899"/>
<path d="M323.579 150.015C323.579 148.778 323.087 147.775 322.48 147.775C321.874 147.775 321.382 148.778 321.382 150.015V197.748C321.382 198.985 321.874 199.988 322.48 199.988C323.087 199.988 323.579 198.985 323.579 197.748V150.015Z" fill="#52B899"/>
<path d="M327.144 154.268C327.144 153.031 326.653 152.028 326.046 152.028C325.439 152.028 324.947 153.031 324.947 154.268V197.748C324.947 198.985 325.439 199.988 326.046 199.988C326.653 199.988 327.144 198.985 327.144 197.748V154.268Z" fill="#52B899"/>
<path d="M330.71 155.872C330.71 154.635 330.218 153.632 329.611 153.632C329.004 153.632 328.512 154.635 328.512 155.872V197.748C328.512 198.985 329.004 199.988 329.611 199.988C330.218 199.988 330.71 198.985 330.71 197.748V155.872Z" fill="#52B899"/>
<path d="M334.275 153.652C334.275 152.415 333.783 151.412 333.176 151.412C332.57 151.412 332.078 152.415 332.078 153.652V197.748C332.078 198.985 332.57 199.988 333.176 199.988C333.783 199.988 334.275 198.985 334.275 197.748V153.652Z" fill="#52B899"/>
<path d="M337.84 146.791C337.84 145.554 337.349 144.551 336.742 144.551C336.135 144.551 335.643 145.554 335.643 146.791V197.748C335.643 198.985 336.135 199.988 336.742 199.988C337.349 199.988 337.84 198.985 337.84 197.748V146.791Z" fill="#52B899"/>
<path d="M341.406 156.96C341.406 155.723 340.914 154.72 340.307 154.72C339.7 154.72 339.208 155.723 339.208 156.96V197.748C339.208 198.985 339.7 199.988 340.307 199.988C340.914 199.988 341.406 198.985 341.406 197.748V156.96Z" fill="#52B899"/>
<path d="M344.971 169.048C344.971 167.811 344.479 166.808 343.872 166.808C343.266 166.808 342.774 167.811 342.774 169.048V197.748C342.774 198.985 343.266 199.988 343.872 199.988C344.479 199.988 344.971 198.985 344.971 197.748V169.048Z" fill="#52B899"/>
<path d="M348.537 88.1418C348.537 86.9046 348.045 85.9016 347.438 85.9016C346.831 85.9016 346.339 86.9046 346.339 88.1418V197.748C346.339 198.985 346.831 199.988 347.438 199.988C348.045 199.988 348.537 198.985 348.537 197.748V88.1418Z" fill="#52B899"/>
<path d="M352.102 77.5505C352.102 76.3132 351.61 75.3102 351.003 75.3102C350.396 75.3102 349.904 76.3132 349.904 77.5505V197.748C349.904 198.985 350.396 199.988 351.003 199.988C351.61 199.988 352.102 198.985 352.102 197.748V77.5505Z" fill="#52B899"/>
<path d="M355.667 134.077C355.667 132.839 355.175 131.836 354.568 131.836C353.962 131.836 353.47 132.839 353.47 134.077V197.748C353.47 198.985 353.962 199.988 354.568 199.988C355.175 199.988 355.667 198.985 355.667 197.748V134.077Z" fill="#52B899"/>
<path d="M359.233 164.766C359.233 163.529 358.741 162.526 358.134 162.526C357.527 162.526 357.035 163.529 357.035 164.766V197.748C357.035 198.985 357.527 199.988 358.134 199.988C358.741 199.988 359.233 198.985 359.233 197.748V164.766Z" fill="#52B899"/>
<path d="M362.798 169.336C362.798 168.099 362.306 167.096 361.699 167.096C361.092 167.096 360.601 168.099 360.601 169.336V197.748C360.601 198.985 361.092 199.988 361.699 199.988C362.306 199.988 362.798 198.985 362.798 197.748V169.336Z" fill="#52B899"/>
<path d="M366.363 161.577C366.363 160.34 365.872 159.337 365.265 159.337C364.658 159.337 364.166 160.34 364.166 161.577V197.748C364.166 198.985 364.658 199.988 365.265 199.988C365.872 199.988 366.363 198.985 366.363 197.748V161.577Z" fill="#52B899"/>
<path d="M369.929 162.072C369.929 160.835 369.437 159.832 368.83 159.832C368.223 159.832 367.731 160.835 367.731 162.072V197.748C367.731 198.985 368.223 199.988 368.83 199.988C369.437 199.988 369.929 198.985 369.929 197.748V162.072Z" fill="#52B899"/>
<path d="M373.494 165.206C373.494 163.968 373.002 162.965 372.395 162.965C371.788 162.965 371.296 163.968 371.296 165.206V197.748C371.296 198.985 371.788 199.988 372.395 199.988C373.002 199.988 373.494 198.985 373.494 197.748V165.206Z" fill="#52B899"/>
<path d="M377.059 158.341C377.059 157.104 376.568 156.101 375.961 156.101C375.354 156.101 374.862 157.104 374.862 158.341V197.748C374.862 198.985 375.354 199.988 375.961 199.988C376.568 199.988 377.059 198.985 377.059 197.748V158.341Z" fill="#52B899"/>
<path d="M380.625 161.355C380.625 160.118 380.133 159.115 379.526 159.115C378.919 159.115 378.427 160.118 378.427 161.355V197.748C378.427 198.985 378.919 199.988 379.526 199.988C380.133 199.988 380.625 198.985 380.625 197.748V161.355Z" fill="#52B899"/>
<path d="M384.19 181.005C384.19 179.768 383.698 178.765 383.091 178.765C382.485 178.765 381.993 179.768 381.993 181.005V197.748C381.993 198.985 382.485 199.988 383.091 199.988C383.698 199.988 384.19 198.985 384.19 197.748V181.005Z" fill="#52B899"/>
<path d="M387.756 183.007C387.756 181.77 387.264 180.767 386.657 180.767C386.05 180.767 385.558 181.77 385.558 183.007V197.748C385.558 198.985 386.05 199.988 386.657 199.988C387.264 199.988 387.756 198.985 387.756 197.748V183.007Z" fill="#52B899"/>
<path d="M391.321 177.451C391.321 176.213 390.829 175.21 390.222 175.21C389.615 175.21 389.123 176.213 389.123 177.451V197.748C389.123 198.985 389.615 199.988 390.222 199.988C390.829 199.988 391.321 198.985 391.321 197.748V177.451Z" fill="#52B899"/>
<path d="M394.886 166.334C394.886 165.096 394.394 164.093 393.787 164.093C393.181 164.093 392.689 165.096 392.689 166.334V197.748C392.689 198.985 393.181 199.988 393.787 199.988C394.394 199.988 394.886 198.985 394.886 197.748V166.334Z" fill="#52B899"/>
<path d="M398.452 173.615C398.452 172.377 397.96 171.374 397.353 171.374C396.746 171.374 396.254 172.377 396.254 173.615V197.748C396.254 198.985 396.746 199.988 397.353 199.988C397.96 199.988 398.452 198.985 398.452 197.748V173.615Z" fill="#52B899"/>
<path d="M402.017 162.154C402.017 160.916 401.525 159.913 400.918 159.913C400.311 159.913 399.82 160.916 399.82 162.154V197.748C399.82 198.985 400.311 199.988 400.918 199.988C401.525 199.988 402.017 198.985 402.017 197.748V162.154Z" fill="#52B899"/>
<path d="M405.582 162.287C405.582 161.05 405.09 160.047 404.483 160.047C403.877 160.047 403.385 161.05 403.385 162.287V197.748C403.385 198.985 403.877 199.988 404.483 199.988C405.09 199.988 405.582 198.985 405.582 197.748V162.287Z" fill="#52B899"/>
<path d="M409.148 171.354C409.148 170.116 408.656 169.113 408.049 169.113C407.442 169.113 406.95 170.116 406.95 171.354V197.748C406.95 198.985 407.442 199.988 408.049 199.988C408.656 199.988 409.148 198.985 409.148 197.748V171.354Z" fill="#52B899"/>
<path d="M412.713 170.243C412.713 169.006 412.221 168.003 411.614 168.003C411.007 168.003 410.515 169.006 410.515 170.243V197.748C410.515 198.985 411.007 199.988 411.614 199.988C412.221 199.988 412.713 198.985 412.713 197.748V170.243Z" fill="#52B899"/>
<path d="M416.278 177.775C416.278 176.538 415.786 175.535 415.18 175.535C414.573 175.535 414.081 176.538 414.081 177.775V197.748C414.081 198.985 414.573 199.988 415.18 199.988C415.786 199.988 416.278 198.985 416.278 197.748V177.775Z" fill="#52B899"/>
<path d="M419.844 184.416C419.844 183.179 419.352 182.176 418.745 182.176C418.138 182.176 417.646 183.179 417.646 184.416V197.748C417.646 198.985 418.138 199.988 418.745 199.988C419.352 199.988 419.844 198.985 419.844 197.748V184.416Z" fill="#52B899"/>
<path d="M423.409 180.476C423.409 179.239 422.917 178.236 422.31 178.236C421.703 178.236 421.211 179.239 421.211 180.476V197.748C421.211 198.985 421.703 199.988 422.31 199.988C422.917 199.988 423.409 198.985 423.409 197.748V180.476Z" fill="#52B899"/>
<path d="M426.974 184.591C426.974 183.354 426.482 182.351 425.876 182.351C425.269 182.351 424.777 183.354 424.777 184.591V197.748C424.777 198.985 425.269 199.988 425.876 199.988C426.482 199.988 426.974 198.985 426.974 197.748V184.591Z" fill="#52B899"/>
<path d="M430.54 171.576C430.54 170.338 430.048 169.335 429.441 169.335C428.834 169.335 428.342 170.338 428.342 171.576V197.748C428.342 198.985 428.834 199.988 429.441 199.988C430.048 199.988 430.54 198.985 430.54 197.748V171.576Z" fill="#52B899"/>
<path d="M434.105 176.695C434.105 175.458 433.613 174.455 433.006 174.455C432.399 174.455 431.907 175.458 431.907 176.695V197.748C431.907 198.985 432.399 199.988 433.006 199.988C433.613 199.988 434.105 198.985 434.105 197.748V176.695Z" fill="#52B899"/>
<path d="M437.67 173.817C437.67 172.579 437.178 171.576 436.572 171.576C435.965 171.576 435.473 172.579 435.473 173.817V197.748C435.473 198.985 435.965 199.988 436.572 199.988C437.178 199.988 437.67 198.985 437.67 197.748V173.817Z" fill="#52B899"/>
<path d="M441.236 184.812C441.236 183.575 440.744 182.572 440.137 182.572C439.53 182.572 439.038 183.575 439.038 184.812V197.748C439.038 198.985 439.53 199.988 440.137 199.988C440.744 199.988 441.236 198.985 441.236 197.748V184.812Z" fill="#52B899"/>
<path d="M444.801 174.679C444.801 173.442 444.309 172.439 443.702 172.439C443.095 172.439 442.604 173.442 442.604 174.679V197.748C442.604 198.985 443.095 199.988 443.702 199.988C444.309 199.988 444.801 198.985 444.801 197.748V174.679Z" fill="#52B899"/>
<path d="M448.366 182.574C448.366 181.337 447.874 180.334 447.268 180.334C446.661 180.334 446.169 181.337 446.169 182.574V197.748C446.169 198.985 446.661 199.988 447.268 199.988C447.874 199.988 448.366 198.985 448.366 197.748V182.574Z" fill="#52B899"/>
<path d="M451.932 181.717C451.932 180.48 451.44 179.477 450.833 179.477C450.226 179.477 449.734 180.48 449.734 181.717V197.748C449.734 198.985 450.226 199.988 450.833 199.988C451.44 199.988 451.932 198.985 451.932 197.748V181.717Z" fill="#52B899"/>
<path d="M455.497 178.673C455.497 177.436 455.005 176.433 454.398 176.433C453.791 176.433 453.3 177.436 453.3 178.673V197.748C453.3 198.985 453.791 199.988 454.398 199.988C455.005 199.988 455.497 198.985 455.497 197.748V178.673Z" fill="#52B899"/>
<path d="M459.062 182.553C459.062 181.316 458.571 180.313 457.964 180.313C457.357 180.313 456.865 181.316 456.865 182.553V197.748C456.865 198.985 457.357 199.988 457.964 199.988C458.571 199.988 459.062 198.985 459.062 197.748V182.553Z" fill="#52B899"/>
<path d="M462.628 174.585C462.628 173.348 462.136 172.345 461.529 172.345C460.922 172.345 460.43 173.348 460.43 174.585V197.748C460.43 198.985 460.922 199.988 461.529 199.988C462.136 199.988 462.628 198.985 462.628 197.748V174.585Z" fill="#52B899"/>
<path d="M466.193 154.147C466.193 152.91 465.701 151.907 465.094 151.907C464.488 151.907 463.996 152.91 463.996 154.147V197.748C463.996 198.985 464.488 199.988 465.094 199.988C465.701 199.988 466.193 198.985 466.193 197.748V154.147Z" fill="#52B899"/>
<path d="M469.758 169.324C469.758 168.087 469.267 167.084 468.66 167.084C468.053 167.084 467.561 168.087 467.561 169.324V197.748C467.561 198.985 468.053 199.988 468.66 199.988C469.267 199.988 469.758 198.985 469.758 197.748V169.324Z" fill="#52B899"/>
<path d="M473.324 152.3C473.324 151.063 472.832 150.06 472.225 150.06C471.618 150.06 471.126 151.063 471.126 152.3V197.748C471.126 198.985 471.618 199.988 472.225 199.988C472.832 199.988 473.324 198.985 473.324 197.748V152.3Z" fill="#52B899"/>
<path d="M476.889 153.665C476.889 152.427 476.397 151.424 475.79 151.424C475.184 151.424 474.692 152.427 474.692 153.665V197.748C474.692 198.985 475.184 199.988 475.79 199.988C476.397 199.988 476.889 198.985 476.889 197.748V153.665Z" fill="#52B899"/>
<path d="M480.455 164.043C480.455 162.806 479.963 161.803 479.356 161.803C478.749 161.803 478.257 162.806 478.257 164.043V197.748C478.257 198.985 478.749 199.988 479.356 199.988C479.963 199.988 480.455 198.985 480.455 197.748V164.043Z" fill="#52B899"/>
<path d="M484.02 174.252C484.02 173.015 483.528 172.012 482.921 172.012C482.314 172.012 481.823 173.015 481.823 174.252V197.748C481.823 198.985 482.314 199.988 482.921 199.988C483.528 199.988 484.02 198.985 484.02 197.748V174.252Z" fill="#52B899"/>
<path d="M487.585 163.875C487.585 162.637 487.093 161.634 486.486 161.634C485.88 161.634 485.388 162.637 485.388 163.875V197.748C485.388 198.985 485.88 199.988 486.486 199.988C487.093 199.988 487.585 198.985 487.585 197.748V163.875Z" fill="#52B899"/>
<path d="M491.151 162.682C491.151 161.444 490.659 160.441 490.052 160.441C489.445 160.441 488.953 161.444 488.953 162.682V197.748C488.953 198.985 489.445 199.988 490.052 199.988C490.659 199.988 491.151 198.985 491.151 197.748V162.682Z" fill="#52B899"/>
<path d="M494.716 161.926C494.716 160.689 494.224 159.686 493.617 159.686C493.01 159.686 492.518 160.689 492.518 161.926V197.748C492.518 198.985 493.01 199.988 493.617 199.988C494.224 199.988 494.716 198.985 494.716 197.748V161.926Z" fill="#52B899"/>
<path d="M498.281 162.616C498.281 161.379 497.789 160.376 497.182 160.376C496.576 160.376 496.084 161.379 496.084 162.616V197.748C496.084 198.985 496.576 199.988 497.182 199.988C497.789 199.988 498.281 198.985 498.281 197.748V162.616Z" fill="#52B899"/>
<path d="M501.847 165.787C501.847 164.55 501.355 163.547 500.748 163.547C500.141 163.547 499.649 164.55 499.649 165.787V197.748C499.649 198.985 500.141 199.988 500.748 199.988C501.355 199.988 501.847 198.985 501.847 197.748V165.787Z" fill="#52B899"/>
<path d="M505.412 138.193C505.412 136.956 504.92 135.953 504.314 135.953C503.707 135.953 503.215 136.956 503.215 138.193V197.748C503.215 198.985 503.707 199.988 504.314 199.988C504.92 199.988 505.412 198.985 505.412 197.748V138.193Z" fill="#52B899"/>
<path d="M508.977 174.719C508.977 173.481 508.485 172.478 507.878 172.478C507.272 172.478 506.78 173.481 506.78 174.719V197.748C506.78 198.985 507.272 199.988 507.878 199.988C508.485 199.988 508.977 198.985 508.977 197.748V174.719Z" fill="#52B899"/>
<path d="M512.543 170.393C512.543 169.155 512.051 168.152 511.444 168.152C510.837 168.152 510.345 169.155 510.345 170.393V197.748C510.345 198.985 510.837 199.988 511.444 199.988C512.051 199.988 512.543 198.985 512.543 197.748V170.393Z" fill="#52B899"/>
<path d="M516.108 177.754C516.108 176.517 515.616 175.514 515.009 175.514C514.402 175.514 513.91 176.517 513.91 177.754V197.748C513.91 198.985 514.402 199.988 515.009 199.988C515.616 199.988 516.108 198.985 516.108 197.748V177.754Z" fill="#52B899"/>
<path d="M519.673 173.411C519.673 172.173 519.182 171.17 518.575 171.17C517.968 171.17 517.476 172.173 517.476 173.411V197.748C517.476 198.985 517.968 199.988 518.575 199.988C519.182 199.988 519.673 198.985 519.673 197.748V173.411Z" fill="#52B899"/>
<path d="M523.239 164.763C523.239 163.526 522.747 162.523 522.14 162.523C521.533 162.523 521.042 163.526 521.042 164.763V197.748C521.042 198.985 521.533 199.988 522.14 199.988C522.747 199.988 523.239 198.985 523.239 197.748V164.763Z" fill="#52B899"/>
<path d="M526.804 159.771C526.804 158.534 526.312 157.531 525.705 157.531C525.098 157.531 524.606 158.534 524.606 159.771V197.748C524.606 198.985 525.098 199.988 525.705 199.988C526.312 199.988 526.804 198.985 526.804 197.748V159.771Z" fill="#52B899"/>
<path d="M530.369 133.283C530.369 132.046 529.877 131.043 529.271 131.043C528.664 131.043 528.172 132.046 528.172 133.283V197.748C528.172 198.985 528.664 199.988 529.271 199.988C529.877 199.988 530.369 198.985 530.369 197.748V133.283Z" fill="#52B899"/>
<path d="M533.935 116.397C533.935 115.16 533.443 114.157 532.836 114.157C532.229 114.157 531.737 115.16 531.737 116.397V197.748C531.737 198.985 532.229 199.988 532.836 199.988C533.443 199.988 533.935 198.985 533.935 197.748V116.397Z" fill="#52B899"/>
<path d="M537.5 199.933C537.5 199.901 537.008 199.875 536.401 199.875C535.795 199.875 535.303 199.901 535.303 199.933C535.303 199.964 535.795 199.99 536.401 199.99C537.008 199.99 537.5 199.964 537.5 199.933Z" fill="#52B899"/>
</g>
</svg>
