<svg width="41" height="41" viewBox="0 0 41 41" fill="none" xmlns="http://www.w3.org/2000/svg">
<path d="M40.8944 20.4802C40.8944 31.6885 31.8084 40.7746 20.6002 40.7746C9.39176 40.7746 0.305664 31.6885 0.305664 20.4802C0.305664 9.27206 9.39176 0.186066 20.6002 0.186066C31.8083 0.186066 40.8944 9.27206 40.8944 20.4802" fill="white" fill-opacity="0.8"/>
<g opacity="0.8">
<path d="M20.5353 11.0637L20.4099 11.4897V23.8529L20.5353 23.978L26.2741 20.5858L20.5353 11.0637Z" fill="#090A0B"/>
<path d="M20.5352 11.0636L14.7963 20.5857L20.5352 23.978V17.9773V11.0636Z" fill="#090A0B"/>
<path d="M20.5351 25.845L20.4645 25.9311V30.3352L20.5351 30.5415L26.2774 22.4545L20.5351 25.845Z" fill="#090A0B"/>
<path d="M20.5352 30.5415V25.845L14.7963 22.4545L20.5352 30.5415Z" fill="#090A0B"/>
<path d="M20.5351 23.9779L26.2739 20.5857L20.5351 17.9773V23.9779Z" fill="#090A0B"/>
<path d="M14.7963 20.5857L20.5351 23.978V17.9773L14.7963 20.5857Z" fill="#090A0B"/>
</g>
</svg>
