<svg width="42" height="41" viewBox="0 0 42 41" fill="none" xmlns="http://www.w3.org/2000/svg">
<path d="M20.8087 40.7746C32.0169 40.7746 41.103 31.6885 41.103 20.4803C41.103 9.27211 32.0169 0.186066 20.8087 0.186066C9.60051 0.186066 0.514465 9.27211 0.514465 20.4803C0.514465 31.6885 9.60051 40.7746 20.8087 40.7746Z" fill="white" fill-opacity="0.8"/>
<path fill-rule="evenodd" clip-rule="evenodd" d="M16.5659 18.7361L20.8108 14.4931L25.0573 18.7396L27.5259 16.2694L20.8108 9.55276L14.0957 16.2677L16.5659 18.7361ZM9.88098 20.4808L12.3503 18.0115L14.8197 20.4808L12.3503 22.9501L9.88098 20.4808ZM20.8106 26.4695L16.5658 22.2248L14.0921 24.6915L14.0955 24.695L20.8106 31.4081L27.5257 24.6915L27.5275 24.6898L25.0572 22.223L20.8106 26.4695ZM26.7976 20.4814L29.267 18.0121L31.7363 20.4814L29.267 22.9507L26.7976 20.4814ZM20.8108 17.9733L23.3156 20.4797H23.3173L23.3156 20.4815L20.8108 22.9879L18.306 20.4849L18.3025 20.4797L18.306 20.4763L18.7445 20.0378L18.9585 19.8255L20.8108 17.9733Z" fill="#F3BA2F"/>
</svg>
