<svg width="25" height="24" viewBox="0 0 25 24" fill="none" xmlns="http://www.w3.org/2000/svg">
<path fill-rule="evenodd" clip-rule="evenodd" d="M20.75 11.5C20.75 16.3325 16.8325 20.25 12 20.25C7.16751 20.25 3.25 16.3325 3.25 11.5C3.25 6.66751 7.16751 2.75 12 2.75C16.8325 2.75 20.75 6.66751 20.75 11.5ZM12 21.75C17.6609 21.75 22.25 17.1609 22.25 11.5C22.25 5.83908 17.6609 1.25 12 1.25C6.33908 1.25 1.75 5.83908 1.75 11.5C1.75 17.1609 6.33908 21.75 12 21.75ZM21.0303 19.4697C20.7374 19.1768 20.2626 19.1768 19.9697 19.4697C19.6768 19.7626 19.6768 20.2374 19.9697 20.5303L21.9696 22.5303C22.2625 22.8232 22.7374 22.8232 23.0303 22.5303C23.3232 22.2374 23.3232 21.7625 23.0303 21.4696L21.0303 19.4697Z" fill="white"/>
</svg>
