<svg width="54" height="54" viewBox="0 0 54 54" fill="none" xmlns="http://www.w3.org/2000/svg">
<rect width="54" height="54" rx="12" fill="url(#paint0_linear_3443_3604)"/>
<path d="M30.3956 23.6045C31.2962 24.5051 31.8021 25.7265 31.8021 27.0001C31.8021 28.2737 31.2962 29.4951 30.3956 30.3957C29.495 31.2963 28.2736 31.8022 27 31.8022C25.7264 31.8022 24.505 31.2963 23.6044 30.3957C22.7038 29.4951 22.1979 28.2737 22.1979 27.0001C22.1979 26.3695 22.3221 25.745 22.5634 25.1624C22.8047 24.5798 23.1585 24.0504 23.6044 23.6045C24.0503 23.1586 24.5797 22.8049 25.1623 22.5635C25.7449 22.3222 26.3694 22.198 27 22.198C28.2736 22.198 29.495 22.7039 30.3956 23.6045" stroke="black" stroke-width="2.00139" stroke-linecap="round" stroke-linejoin="round"/>
<path d="M14.9998 27.0002C14.9998 27.5283 15.0478 28.0563 15.1118 28.5683L12.2886 30.7763C11.9858 31.0134 11.7788 31.3519 11.7057 31.7295C11.6325 32.1071 11.6981 32.4984 11.8904 32.8314L14.4007 37.1746C14.5929 37.5072 14.8986 37.7594 15.2618 37.8848C15.6249 38.0102 16.0211 38.0004 16.3776 37.8573L18.9056 36.8422C19.1517 36.7469 19.4173 36.7131 19.6795 36.7438C19.9416 36.7745 20.1922 36.8687 20.4097 37.0182C20.8008 37.2777 21.2061 37.516 21.6257 37.7293C22.1057 37.9729 22.4541 38.4084 22.5306 38.9418L22.9164 41.6316C23.0284 42.4174 23.7021 43.0005 24.495 43.0005H29.5031C29.887 43.0005 30.2579 42.8621 30.5479 42.6106C30.8379 42.3592 31.0275 42.0115 31.0818 41.6316L31.4676 38.9435C31.5096 38.6826 31.6144 38.4357 31.773 38.2242C31.9316 38.0127 32.1391 37.8428 32.3778 37.7293C32.7956 37.5195 33.1992 37.2831 33.5885 37.0253C33.8065 36.8741 34.0582 36.7786 34.3216 36.747C34.585 36.7154 34.8521 36.7487 35.0997 36.844L37.6224 37.8573C37.9789 38 38.375 38.0096 38.738 37.8842C39.101 37.7589 39.4068 37.507 39.5993 37.1746L42.1095 32.8314C42.3018 32.4984 42.3674 32.1071 42.2943 31.7295C42.2211 31.3519 42.0141 31.0134 41.7113 30.7763L38.8882 28.5683C38.9522 28.0563 39.0002 27.5283 39.0002 27.0002C39.0002 26.4722 38.9522 25.9442 38.8882 25.4322L41.7113 23.2242C42.0141 22.9871 42.2211 22.6486 42.2943 22.271C42.3674 21.8934 42.3018 21.5021 42.1095 21.169L39.5993 16.8259C39.407 16.4933 39.1013 16.2411 38.7382 16.1157C38.375 15.9903 37.9789 16.0001 37.6224 16.1432L35.0997 17.1565C34.852 17.2514 34.585 17.2844 34.3217 17.2528C34.0583 17.2212 33.8067 17.1259 33.5885 16.9752C33.1993 16.7166 32.7951 16.4815 32.3778 16.2712C32.1391 16.1576 31.9316 15.9878 31.773 15.7763C31.6144 15.5648 31.5096 15.3179 31.4676 15.057L31.0836 12.3689C31.0292 11.9889 30.8397 11.6413 30.5497 11.3899C30.2597 11.1384 29.8887 11 29.5049 11H24.4968C24.113 11 23.742 11.1384 23.452 11.3899C23.162 11.6413 22.9725 11.9889 22.9181 12.3689L22.5306 15.0605C22.4885 15.3205 22.3843 15.5666 22.2267 15.7777C22.0692 15.9888 21.863 16.1587 21.6257 16.273C21.2061 16.4863 20.8008 16.7263 20.4097 16.9841C20.1915 17.1329 19.9405 17.2265 19.6782 17.2569C19.4159 17.2872 19.1502 17.2534 18.9039 17.1583L16.3776 16.1432C16.0211 16.0001 15.6249 15.9903 15.2618 16.1157C14.8986 16.2411 14.5929 16.4933 14.4007 16.8259L11.8904 21.169C11.6981 21.5021 11.6325 21.8934 11.7057 22.271C11.7788 22.6486 11.9858 22.9871 12.2886 23.2242L15.1118 25.4322C15.0421 25.9521 15.0047 26.4758 14.9998 27.0002V27.0002Z" stroke="black" stroke-width="2.00139" stroke-linecap="round" stroke-linejoin="round"/>
<defs>
<linearGradient id="paint0_linear_3443_3604" x1="54" y1="27" x2="1.49012e-07" y2="27" gradientUnits="userSpaceOnUse">
<stop stop-color="#CF7D33"/>
<stop offset="1" stop-color="#F3BA2F"/>
</linearGradient>
</defs>
</svg>
