<svg width="45" height="44" viewBox="0 0 45 44" fill="none" xmlns="http://www.w3.org/2000/svg">
<rect x="0.817993" width="44" height="44" rx="12" fill="white" fill-opacity="0.1"/>
<rect x="1.31799" y="0.5" width="43" height="43" rx="11.5" stroke="white" stroke-opacity="0.2"/>
<path d="M13.818 15H20.818M20.818 15C20.818 16.1046 21.7134 17 22.818 17C23.9226 17 24.818 16.1046 24.818 15M20.818 15C20.818 13.8954 21.7134 13 22.818 13C23.9226 13 24.818 13.8954 24.818 15M13.818 22H22.818M29.818 22H31.818M29.818 22C29.818 23.1046 28.9226 24 27.818 24C26.7134 24 25.818 23.1046 25.818 22C25.818 20.8954 26.7134 20 27.818 20C28.9226 20 29.818 20.8954 29.818 22ZM24.818 15H31.818M22.818 29H31.818M13.818 29H15.818M15.818 29C15.818 30.1046 16.7134 31 17.818 31C18.9226 31 19.818 30.1046 19.818 29C19.818 27.8954 18.9226 27 17.818 27C16.7134 27 15.818 27.8954 15.818 29Z" stroke="white" stroke-width="1.5" stroke-linecap="round"/>
</svg>
