<svg width="20" height="21" viewBox="0 0 20 21" fill="none" xmlns="http://www.w3.org/2000/svg">
<path d="M11.9945 8.15734C12.5234 8.68628 12.8206 9.40367 12.8206 10.1517C12.8206 10.8997 12.5234 11.6171 11.9945 12.1461C11.4656 12.675 10.7482 12.9721 10.0001 12.9721C9.25211 12.9721 8.53471 12.675 8.00578 12.1461C7.47684 11.6171 7.17969 10.8997 7.17969 10.1517C7.17969 9.78131 7.25264 9.41455 7.39438 9.07236C7.53612 8.73017 7.74388 8.41925 8.00578 8.15734C8.26768 7.89544 8.5786 7.68769 8.9208 7.54595C9.26299 7.40421 9.62975 7.33125 10.0001 7.33125C10.7482 7.33125 11.4656 7.62841 11.9945 8.15734" stroke="white" stroke-width="1.17549" stroke-linecap="round" stroke-linejoin="round"/>
<path d="M2.95188 10.1519C2.95188 10.462 2.98007 10.7721 3.01766 11.0728L1.35952 12.3697C1.18168 12.5089 1.0601 12.7077 1.01712 12.9295C0.974153 13.1513 1.01268 13.3811 1.12563 13.5767L2.59999 16.1276C2.7129 16.323 2.89247 16.4711 3.10575 16.5447C3.31903 16.6184 3.55171 16.6126 3.76111 16.5286L5.24591 15.9324C5.39045 15.8764 5.54646 15.8566 5.7004 15.8746C5.85434 15.8926 6.00156 15.9479 6.12928 16.0357C6.35899 16.1882 6.59706 16.3281 6.84348 16.4534C7.12541 16.5965 7.33007 16.8523 7.37497 17.1655L7.60155 18.7453C7.66733 19.2069 8.06307 19.5494 8.52877 19.5494H11.4702C11.6956 19.5494 11.9135 19.4681 12.0838 19.3204C12.2541 19.1727 12.3655 18.9685 12.3974 18.7453L12.624 17.1666C12.6487 17.0133 12.7102 16.8683 12.8034 16.7441C12.8965 16.6198 13.0184 16.5201 13.1586 16.4534C13.404 16.3302 13.641 16.1913 13.8697 16.0399C13.9977 15.9511 14.1455 15.895 14.3002 15.8765C14.4549 15.8579 14.6118 15.8774 14.7572 15.9334L16.2389 16.5286C16.4483 16.6124 16.6809 16.618 16.8941 16.5444C17.1074 16.4708 17.2869 16.3228 17.4 16.1276L18.8744 13.5767C18.9873 13.3811 19.0258 13.1513 18.9829 12.9295C18.9399 12.7077 18.8183 12.5089 18.6405 12.3697L16.9823 11.0728C17.0199 10.7721 17.0481 10.462 17.0481 10.1519C17.0481 9.84174 17.0199 9.53163 16.9823 9.23091L18.6405 7.93405C18.8183 7.79477 18.9399 7.59597 18.9829 7.37421C19.0258 7.15244 18.9873 6.92262 18.8744 6.727L17.4 4.1761C17.2871 3.98074 17.1075 3.83266 16.8942 3.75901C16.681 3.68536 16.4483 3.69108 16.2389 3.77514L14.7572 4.37031C14.6118 4.426 14.4549 4.44541 14.3003 4.42685C14.1456 4.4083 13.9978 4.35233 13.8697 4.26381C13.6411 4.11194 13.4037 3.97386 13.1586 3.85032C13.0184 3.78363 12.8965 3.68388 12.8034 3.55965C12.7102 3.43542 12.6487 3.29043 12.624 3.13715L12.3984 1.55837C12.3665 1.3352 12.2552 1.13104 12.0849 0.983347C11.9145 0.835657 11.6967 0.754355 11.4712 0.754364H8.52981C8.30438 0.754355 8.0865 0.835657 7.91617 0.983347C7.74585 1.13104 7.63451 1.3352 7.60259 1.55837L7.37497 3.13924C7.35027 3.29196 7.28905 3.43646 7.19651 3.56045C7.10398 3.68443 6.98287 3.78423 6.84348 3.85136C6.59706 3.97666 6.35899 4.11762 6.12928 4.26903C6.00117 4.35643 5.85374 4.41141 5.69969 4.42924C5.54563 4.44706 5.38955 4.4272 5.24487 4.37136L3.76111 3.77514C3.55171 3.69108 3.31903 3.68536 3.10575 3.75901C2.89247 3.83266 2.7129 3.98074 2.59999 4.1761L1.12563 6.727C1.01268 6.92262 0.974153 7.15244 1.01712 7.37421C1.0601 7.59597 1.18168 7.79477 1.35952 7.93405L3.01766 9.23091C2.97672 9.53624 2.95475 9.84381 2.95188 10.1519V10.1519Z" stroke="white" stroke-width="1.17549" stroke-linecap="round" stroke-linejoin="round"/>
</svg>
